# Blender v2.81 (sub 16) OBJ File: ''
# www.blender.org
o Circle.031_Circle.032
v -0.036946 -0.000001 -0.168351
v -0.132261 -0.000001 -0.096856
v -0.048579 0.087746 -0.213741
v -0.149103 -0.000001 0.021095
v -0.077609 -0.000001 0.116409
v -0.194493 0.087746 0.032727
v 0.040343 -0.000001 0.133252
v 0.135655 -0.000001 0.061757
v 0.175977 0.087746 0.085629
v 0.081004 -0.000001 -0.151508
v 0.104875 0.087746 -0.191829
v 0.152499 -0.000001 -0.056194
v 0.197889 0.087746 -0.067825
v -0.101481 0.087746 0.156730
v 0.051974 0.087746 0.178643
v 0.194602 0.178418 0.096656
v -0.053952 0.178418 -0.234708
v 0.115902 0.178418 -0.210453
v -0.172581 0.087746 -0.120727
v -0.191207 0.178418 -0.131754
v 0.057347 0.178418 0.199610
v -0.215462 0.178418 0.038100
v 0.218856 0.178418 -0.073198
v 0.226320 0.345137 -0.075111
v -0.197836 0.345137 -0.135678
v -0.112506 0.178418 0.175355
v -0.116432 0.345137 0.181985
v 0.059259 0.345137 0.207072
v 0.119826 0.345137 -0.217082
v 0.187559 0.465058 -0.065179
v -0.222923 0.345137 0.040012
v -0.163405 0.465058 -0.115295
v -0.096047 0.465058 0.147553
v 0.201232 0.345137 0.100580
v 0.166801 0.465058 0.080196
v -0.055865 0.345137 -0.242170
v -0.045932 0.465058 -0.203411
v -0.184164 0.465058 0.030080
v -0.076227 0.542323 0.114074
v 0.049326 0.465058 0.168313
v 0.039668 0.542323 0.130622
v 0.099443 0.465058 -0.182653
v -0.036272 0.542323 -0.165721
v 0.079621 0.542323 -0.149172
v -0.129924 0.542323 -0.095473
v 0.149870 0.542323 -0.055520
v -0.076227 0.542323 0.114074
v 0.039668 0.542323 0.130622
v -0.061871 0.542323 0.089826
v 0.133320 0.542323 0.060375
v 0.149870 0.542323 -0.055520
v 0.109073 0.542323 0.046020
v -0.036272 0.542323 -0.165721
v -0.129924 0.542323 -0.095473
v -0.029278 0.542323 -0.138425
v -0.146475 0.542323 0.020421
v 0.079621 0.542323 -0.149172
v 0.065267 0.542323 -0.124925
v 0.122574 0.542323 -0.048526
v -0.105679 0.542323 -0.081119
v 0.032674 0.542323 0.103328
v 0.109073 0.542323 0.046020
v 0.032674 0.521220 0.103328
v 0.065267 0.542323 -0.124925
v -0.029278 0.542323 -0.138425
v 0.065267 0.521220 -0.124925
v 0.122574 0.542323 -0.048526
v 0.122574 0.521220 -0.048526
v -0.105679 0.542323 -0.081119
v -0.119178 0.542323 0.013427
v -0.119178 0.521220 0.013427
v -0.061871 0.542323 0.089826
v 0.109073 0.521220 0.046020
v -0.105679 0.521220 -0.081119
v -0.061871 0.521220 0.089826
v 0.109073 0.521220 0.046020
v 0.122574 0.521220 -0.048526
v 0.001697 0.523046 -0.017549
v -0.029278 0.521220 -0.138425
v -0.105679 0.521220 -0.081119
v -0.119178 0.521220 0.013427
v -0.061871 0.521220 0.089826
v 0.032674 0.521220 0.103328
v 0.065267 0.521220 -0.124925
v -0.146475 0.542323 0.020421
v 0.133320 0.542323 0.060375
v 0.032674 0.542323 0.103328
v -0.119178 0.542323 0.013427
v -0.029278 0.521220 -0.138425
vt 0.634361 0.444895
vt 0.749350 0.445563
vt 0.634830 0.537708
vt 0.867467 0.444733
vt 0.985584 0.443903
vt 0.867330 0.538527
vt 0.160719 0.443720
vt 0.278445 0.445887
vt 0.277477 0.534982
vt 0.511551 0.445725
vt 0.511541 0.535801
vt 0.394998 0.445057
vt 0.396073 0.535392
vt 0.040255 0.444550
vt 0.039893 0.535663
vt 0.160836 0.536072
vt 0.278134 0.621378
vt 0.635565 0.620379
vt 0.511728 0.620212
vt 0.748733 0.538117
vt 0.748451 0.620545
vt 0.160946 0.621212
vt 0.985926 0.538936
vt 0.867595 0.620712
vt 0.395713 0.621545
vt 0.395397 0.771609
vt 0.748930 0.772302
vt 0.985174 0.620878
vt 0.985140 0.771765
vt 0.159187 0.771771
vt 0.511155 0.772839
vt 0.040629 0.621046
vt 0.040690 0.772040
vt 0.395916 0.889410
vt 0.867817 0.772034
vt 0.748440 0.889116
vt 0.040263 0.889705
vt 0.278074 0.771877
vt 0.278408 0.888510
vt 0.634736 0.772571
vt 0.632496 0.889713
vt 0.867513 0.888518
vt 0.985021 0.889418
vt 0.985514 0.979659
vt 0.159335 0.889482
vt 0.159450 0.979627
vt 0.511859 0.888813
vt 0.631486 0.979217
vt 0.513477 0.978570
vt 0.749496 0.978365
vt 0.039876 0.978980
vt 0.395468 0.979422
vt 0.594712 0.691226
vt 0.625050 0.691341
vt 0.586323 0.718193
vt 0.412687 0.690534
vt 0.443024 0.690650
vt 0.437829 0.717630
vt 0.503700 0.690880
vt 0.534037 0.690995
vt 0.512076 0.717911
vt 0.564375 0.691111
vt 0.655388 0.691457
vt 0.635821 0.718380
vt 0.473362 0.690765
vt 0.487327 0.717817
vt 0.462578 0.717724
vt 0.536825 0.718005
vt 0.743332 0.715651
vt 0.626832 0.715663
vt 0.743330 0.685039
vt 0.393855 0.715678
vt 0.277375 0.715680
vt 0.393854 0.685072
vt 0.510340 0.715672
vt 0.510339 0.685064
vt 0.160897 0.715680
vt 0.044420 0.715680
vt 0.044420 0.685075
vt 0.859839 0.715637
vt 0.626830 0.685053
vt 0.160897 0.685075
vt 0.976346 0.715622
vt 0.859836 0.685024
vt 0.416517 0.304421
vt 0.324007 0.396930
vt 0.258593 0.239007
vt 0.100669 0.304421
vt 0.100669 0.173593
vt 0.193179 0.081083
vt 0.324007 0.081083
vt 0.416517 0.173593
vt 0.193179 0.396930
vt 0.867505 0.979012
vt 0.277459 0.978775
vt 0.611072 0.718287
vt 0.561574 0.718099
vt 0.277375 0.685075
vt 0.976344 0.685010
vn -0.2190 -0.4710 -0.8545
vn -0.7591 -0.4710 -0.4494
vn -0.2330 -0.3446 -0.9094
vn -0.8545 -0.4710 0.2190
vn -0.4494 -0.4711 0.7591
vn -0.9094 -0.3446 0.2330
vn 0.2190 -0.4711 0.8545
vn 0.7591 -0.4711 0.4494
vn 0.8078 -0.3446 0.4782
vn 0.4494 -0.4710 -0.7591
vn 0.4782 -0.3446 -0.8078
vn 0.8545 -0.4710 -0.2190
vn 0.9094 -0.3446 -0.2330
vn -0.4782 -0.3446 0.8078
vn 0.2330 -0.3446 0.9094
vn 0.8524 -0.1367 0.5047
vn -0.2459 -0.1367 -0.9596
vn 0.5047 -0.1367 -0.8524
vn -0.8078 -0.3446 -0.4782
vn -0.8524 -0.1367 -0.5047
vn 0.2459 -0.1367 0.9596
vn -0.9596 -0.1367 0.2459
vn 0.9596 -0.1367 -0.2459
vn 0.9602 0.1318 -0.2461
vn -0.8530 0.1318 -0.5050
vn -0.5047 -0.1367 0.8524
vn -0.5050 0.1318 0.8530
vn 0.2461 0.1318 0.9602
vn 0.5050 0.1318 -0.8530
vn 0.8968 0.3780 -0.2298
vn -0.9603 0.1318 0.2461
vn -0.7967 0.3780 -0.4716
vn -0.4716 0.3780 0.7967
vn 0.8530 0.1318 0.5050
vn 0.7967 0.3780 0.4716
vn -0.2461 0.1318 -0.9602
vn -0.2298 0.3780 -0.8968
vn -0.8968 0.3780 0.2298
vn -0.4550 0.4498 0.7686
vn 0.2298 0.3780 0.8968
vn 0.2217 0.4498 0.8652
vn 0.4716 0.3780 -0.7967
vn -0.2217 0.4498 -0.8652
vn 0.4550 0.4498 -0.7686
vn -0.7686 0.4498 -0.4550
vn 0.8652 0.4498 -0.2217
vn 0.0000 1.0000 -0.0000
vn -0.2482 0.0000 -0.9687
vn -0.8605 0.0000 -0.5094
vn -0.5094 -0.0000 0.8605
vn 0.2482 -0.0000 0.9687
vn -0.9687 -0.0000 0.2482
vn 0.8605 -0.0000 0.5094
vn 0.9687 0.0000 -0.2482
vn 0.5094 0.0000 -0.8605
vn 0.0126 0.9999 0.0075
vn 0.0142 0.9999 -0.0036
vn -0.0036 0.9999 -0.0142
vn -0.0126 0.9999 -0.0075
vn -0.0142 0.9999 0.0036
vn -0.0075 0.9999 0.0126
vn 0.0036 0.9999 0.0142
vn 0.0075 0.9999 -0.0126
vn -0.8652 0.4498 0.2217
vn 0.7686 0.4498 0.4550
s 1
f 1/1/1 2/2/2 3/3/3
f 4/4/4 5/5/5 6/6/6
f 7/7/7 8/8/8 9/9/9
f 10/10/10 1/1/1 11/11/11
f 12/12/12 10/10/10 13/13/13
f 2/2/2 4/4/4 6/6/6
f 5/14/5 7/7/7 14/15/14
f 8/8/8 12/12/12 13/13/13
f 15/16/15 9/9/9 16/17/16
f 11/11/11 3/3/3 17/18/17
f 13/13/13 11/11/11 18/19/18
f 19/20/19 6/6/6 20/21/20
f 14/15/14 15/16/15 21/22/21
f 9/9/9 13/13/13 16/17/16
f 3/3/3 19/20/19 17/18/17
f 6/6/6 14/23/14 22/24/22
f 16/17/16 23/25/23 24/26/24
f 17/18/17 20/21/20 25/27/25
f 22/24/22 26/28/26 27/29/27
f 21/22/21 16/17/16 28/30/28
f 18/19/18 17/18/17 29/31/29
f 23/25/23 18/19/18 24/26/24
f 20/21/20 22/24/22 25/27/25
f 26/32/26 21/22/21 27/33/27
f 24/26/24 29/31/29 30/34/30
f 25/27/25 31/35/31 32/36/32
f 27/33/27 28/30/28 33/37/33
f 34/38/34 24/26/24 35/39/35
f 36/40/36 25/27/25 37/41/37
f 31/35/31 27/29/27 38/42/38
f 28/30/28 34/38/34 35/39/35
f 29/31/29 36/40/36 37/41/37
f 38/42/38 33/43/33 39/44/39
f 40/45/40 35/39/35 41/46/41
f 42/47/42 37/41/37 43/48/43
f 30/34/30 42/47/42 44/49/44
f 32/36/32 38/42/38 45/50/45
f 33/37/33 40/45/40 39/51/39
f 35/39/35 30/34/30 46/52/46
f 37/41/37 32/36/32 43/48/43
f 47/53/47 48/54/47 49/55/47
f 50/56/47 51/57/47 52/58/47
f 53/59/47 54/60/47 55/61/47
f 56/62/47 47/53/47 49/55/47
f 48/54/47 50/63/47 52/64/47
f 57/65/47 53/59/47 58/66/47
f 51/57/47 57/65/47 59/67/47
f 54/60/47 56/62/47 60/68/47
f 61/69/48 62/70/49 63/71/48
f 64/72/50 65/73/51 66/74/50
f 67/75/52 64/72/50 68/76/52
f 69/77/53 70/78/54 71/79/54
f 72/80/55 61/69/48 63/71/48
f 62/70/49 67/75/52 73/81/49
f 65/73/51 69/77/53 74/82/53
f 70/83/54 72/80/55 75/84/55
f 76/85/56 77/86/57 78/87/47
f 79/88/58 80/89/59 78/87/47
f 81/90/60 82/91/61 78/87/47
f 83/92/62 76/85/56 78/87/47
f 84/93/63 79/88/58 78/87/47
f 77/86/57 84/93/63 78/87/47
f 80/89/59 81/90/60 78/87/47
f 82/91/61 83/92/62 78/87/47
f 2/2/2 19/20/19 3/3/3
f 5/5/5 14/23/14 6/6/6
f 15/16/15 7/7/7 9/9/9
f 1/1/1 3/3/3 11/11/11
f 10/10/10 11/11/11 13/13/13
f 19/20/19 2/2/2 6/6/6
f 7/7/7 15/16/15 14/15/14
f 9/9/9 8/8/8 13/13/13
f 21/22/21 15/16/15 16/17/16
f 18/19/18 11/11/11 17/18/17
f 23/25/23 13/13/13 18/19/18
f 6/6/6 22/24/22 20/21/20
f 26/32/26 14/15/14 21/22/21
f 13/13/13 23/25/23 16/17/16
f 19/20/19 20/21/20 17/18/17
f 14/23/14 26/28/26 22/24/22
f 34/38/34 16/17/16 24/26/24
f 36/40/36 17/18/17 25/27/25
f 31/35/31 22/24/22 27/29/27
f 16/17/16 34/38/34 28/30/28
f 17/18/17 36/40/36 29/31/29
f 18/19/18 29/31/29 24/26/24
f 22/24/22 31/35/31 25/27/25
f 21/22/21 28/30/28 27/33/27
f 29/31/29 42/47/42 30/34/30
f 31/35/31 38/42/38 32/36/32
f 28/30/28 40/45/40 33/37/33
f 24/26/24 30/34/30 35/39/35
f 25/27/25 32/36/32 37/41/37
f 27/29/27 33/43/33 38/42/38
f 40/45/40 28/30/28 35/39/35
f 42/47/42 29/31/29 37/41/37
f 85/94/64 38/42/38 39/44/39
f 35/39/35 86/95/65 41/46/41
f 44/49/44 42/47/42 43/48/43
f 46/52/46 30/34/30 44/49/44
f 38/42/38 85/94/64 45/50/45
f 40/45/40 41/46/41 39/51/39
f 86/95/65 35/39/35 46/52/46
f 32/36/32 45/50/45 43/48/43
f 48/54/47 87/96/47 49/55/47
f 51/57/47 59/67/47 52/58/47
f 54/60/47 60/68/47 55/61/47
f 88/97/47 56/62/47 49/55/47
f 87/96/47 48/54/47 52/64/47
f 53/59/47 55/61/47 58/66/47
f 57/65/47 58/66/47 59/67/47
f 56/62/47 88/97/47 60/68/47
f 62/70/49 73/81/49 63/71/48
f 65/73/51 89/98/51 66/74/50
f 64/72/50 66/74/50 68/76/52
f 74/82/53 69/77/53 71/79/54
f 75/84/55 72/80/55 63/71/48
f 67/75/52 68/76/52 73/81/49
f 89/98/51 65/73/51 74/82/53
f 71/99/54 70/83/54 75/84/55
